<svg width="50" height="50" viewBox="0 0 50 50" xmlns="http://www.w3.org/2000/svg" xmlns:xlink="http://www.w3.org/1999/xlink"><title>Fill 1</title><defs><radialGradient cx="16.205%" cy="-25.638%" fx="16.205%" fy="-25.638%" r="217.456%" id="c"><stop stop-color="#FFF" offset="0%"/><stop stop-opacity=".5" offset="100%"/></radialGradient><filter x="-50%" y="-50%" width="200%" height="200%" filterUnits="objectBoundingBox" id="a"><feOffset dy="1" in="SourceAlpha" result="shadowOffsetInner1"/><feGaussianBlur in="shadowOffsetInner1" result="shadowBlurInner1"/><feComposite in="shadowBlurInner1" in2="SourceAlpha" operator="arithmetic" k2="-1" k3="1" result="shadowInnerInner1"/><feColorMatrix values="0 0 0 0 1 0 0 0 0 1 0 0 0 0 1 0 0 0 0.0854591259 0" in="shadowInnerInner1" result="shadowMatrixInner1"/><feMerge><feMergeNode in="SourceGraphic"/><feMergeNode in="shadowMatrixInner1"/></feMerge></filter><path d="M40.927 54.599l5.33-5.33a.121.121 0 0 1 .17 0l6.865 6.864c.048.048.033.1-.031.117l-8.443 2.263a.232.232 0 0 1-.203-.054l-3.688-3.689a.121.121 0 0 1 0-.171m-9.745 3.914L22.74 56.25c-.065-.017-.079-.07-.031-.117l6.864-6.864a.121.121 0 0 1 .171 0l5.33 5.33a.121.121 0 0 1 0 .171l-3.688 3.689a.232.232 0 0 1-.203.054m-9.781-17.586l5.33 5.33a.121.121 0 0 1 0 .17l-6.865 6.865c-.047.048-.1.034-.116-.031l-2.263-8.443a.232.232 0 0 1 .054-.203l3.689-3.688a.121.121 0 0 1 .171 0m-3.914-9.745l2.263-8.443c.017-.064.07-.079.116-.031l6.865 6.864a.121.121 0 0 1 0 .171l-5.33 5.33a.121.121 0 0 1-.171 0l-3.689-3.688a.232.232 0 0 1-.054-.203m17.586-9.781l-5.33 5.33a.121.121 0 0 1-.171 0l-6.864-6.864c-.048-.048-.034-.1.031-.117l8.443-2.263a.232.232 0 0 1 .203.054l3.688 3.689a.121.121 0 0 1 0 .171m9.745-3.914l8.443 2.263c.064.017.079.07.031.117l-6.864 6.864a.121.121 0 0 1-.171 0l-5.33-5.33a.121.121 0 0 1 0-.171l3.688-3.689a.232.232 0 0 1 .203-.054m9.781 17.586l-5.33-5.33a.121.121 0 0 1 0-.17l6.864-6.865c.048-.048.1-.033.117.031l2.263 8.443a.232.232 0 0 1-.055.203l-3.688 3.688a.121.121 0 0 1-.171 0m-13.672 2.841l5.33-5.33a.121.121 0 0 1 .17 0l5.33 5.33a.121.121 0 0 1 0 .172l-5.33 5.33a.121.121 0 0 1-.17 0l-5.33-5.33a.121.121 0 0 1 0-.172m-2.841 3.013l5.33 5.33a.121.121 0 0 1 0 .17l-5.33 5.33a.121.121 0 0 1-.172 0l-5.33-5.33a.121.121 0 0 1 0-.17l5.33-5.33a.121.121 0 0 1 .172 0m-5.502-11.355l5.33-5.33a.121.121 0 0 1 .172 0l5.33 5.33a.121.121 0 0 1 0 .171l-5.33 5.33a.121.121 0 0 1-.172 0l-5.33-5.33a.121.121 0 0 1 0-.17m2.49 8.513l-5.33 5.33a.121.121 0 0 1-.172 0l-5.33-5.33a.121.121 0 0 1 0-.172l5.33-5.33a.121.121 0 0 1 .171 0l5.33 5.33a.121.121 0 0 1 0 .172m23.44 6.732L56.25 53.26c-.017.065-.07.079-.117.031l-6.864-6.864a.121.121 0 0 1 0-.171l5.33-5.33a.121.121 0 0 1 .171 0l3.689 3.688a.232.232 0 0 1 .054.203m-.902-6.904l5.33-5.328a.232.232 0 0 0 .053-.203l-4.063-15.165a.232.232 0 0 0-.149-.149l-15.165-4.063a.232.232 0 0 0-.203.054l-5.328 5.329a.121.121 0 0 1-.172 0l-5.328-5.33a.232.232 0 0 0-.203-.053l-15.166 4.063a.232.232 0 0 0-.148.149l-4.063 15.165a.232.232 0 0 0 .054.203l5.329 5.328a.121.121 0 0 1 0 .172l-5.33 5.328a.232.232 0 0 0-.053.203l4.063 15.165c.017.065.084.131.148.149l15.166 4.063a.232.232 0 0 0 .203-.054l5.328-5.329a.121.121 0 0 1 .172 0l5.328 5.33a.232.232 0 0 0 .203.053l15.165-4.063a.232.232 0 0 0 .149-.149l4.063-15.165a.232.232 0 0 0-.054-.203l-5.329-5.328a.121.121 0 0 1 0-.172" id="b"/></defs><g transform="translate(-13 -13)" fill="none" fill-rule="evenodd" filter="url(#a)"><use fill="#37C3F6" xlink:href="#b"/><use fill-opacity=".01" xlink:href="#b"/><use fill-opacity=".3" fill="url(#c)" style="mix-blend-mode:lighten" xlink:href="#b"/></g></svg>